<?xml version="1.0" encoding="utf-8"?>
<!DOCTYPE svg PUBLIC "-//W3C//DTD SVG 20010904//EN" "http://www.w3.org/TR/2001/REC-SVG-20010904/DTD/svg10.dtd">
<svg version="1.0" xmlns="http://www.w3.org/2000/svg" width="600pt" height="579pt" viewBox="0 0 600 579" style="" preserveAspectRatio="xMidYMid meet">
<g fill="#000000FF" stroke="#000000FF">
<path d="M 558.017 318.456 C 557.457 319.927 557.000 322.169 557.000 323.439 C 557.000 326.852 549.882 347.348 545.633 356.169 C 537.626 372.790 526.851 386.241 510.906 399.520 C 496.692 411.358 481.668 419.596 448.000 434.013 C 416.090 447.678 402.913 455.285 386.904 469.286 C 375.943 478.873 369.813 485.955 358.306 502.330 C 347.439 517.795 345.337 521.705 346.697 523.929 C 348.605 527.051 362.695 536.992 371.500 541.429 C 391.236 551.375 410.117 554.083 432.081 550.120 C 450.412 546.811 466.376 540.593 484.500 529.702 C 512.777 512.709 538.854 487.512 558.191 458.500 C 590.866 409.474 593.775 362.671 566.521 324.478 C 560.395 315.893 559.289 315.110 558.017 318.456 "/></g>
<g fill="#000000FF" stroke="#000000FF">
<path d="M 35.142 322.322 C 18.494 343.243 11.674 371.226 16.499 398.811 C 26.767 457.516 87.278 524.628 148.500 545.213 C 159.931 549.056 176.161 552.000 185.919 552.000 C 199.996 552.000 216.832 547.771 230.000 540.928 C 238.776 536.368 252.651 525.676 253.576 522.761 C 254.056 521.248 251.734 517.077 244.393 506.267 C 219.148 469.092 200.952 454.858 152.000 433.994 C 121.596 421.035 103.242 411.245 91.547 401.748 C 75.857 389.007 62.425 372.630 54.660 356.773 C 49.576 346.391 43.650 329.239 42.569 321.773 C 42.193 319.174 41.501 316.809 41.031 316.519 C 40.562 316.229 37.912 318.841 35.142 322.322 "/></g>
<g fill="#000000FF" stroke="#000000FF">
<path d="M 477.000 283.241 C 441.303 287.390 402.899 308.623 370.428 342.162 C 350.992 362.237 338.642 380.103 327.338 404.500 C 319.438 421.550 317.770 429.157 317.255 450.500 C 316.872 466.380 317.070 469.501 318.929 477.000 C 321.356 486.787 325.735 496.506 332.219 506.500 C 337.316 514.355 340.743 518.277 341.890 517.568 C 342.314 517.306 343.223 514.483 343.909 511.296 C 351.010 478.322 370.194 449.018 397.500 429.436 C 407.169 422.502 431.581 409.990 455.000 399.965 C 503.326 379.279 520.447 365.391 548.361 324.239 C 552.563 318.045 556.000 312.572 556.000 312.075 C 556.000 310.650 543.672 301.212 535.015 296.009 C 525.181 290.099 510.273 285.169 498.500 283.934 C 493.550 283.414 488.375 282.850 487.000 282.680 C 485.625 282.509 481.125 282.762 477.000 283.241 "/></g>
<g fill="#000000FF" stroke="#000000FF">
<path d="M 292.000 29.645 C 277.312 31.006 266.558 34.068 254.534 40.312 C 209.945 63.463 185.931 122.101 190.932 195.619 C 193.372 231.495 201.865 259.852 217.034 282.772 C 222.394 290.870 235.608 304.226 244.423 310.456 C 252.829 316.396 269.641 323.393 280.500 325.470 C 288.188 326.940 295.000 327.461 295.000 326.579 C 295.000 326.348 292.761 322.548 290.024 318.136 C 273.550 291.574 267.020 264.176 269.911 233.752 C 270.525 227.291 271.710 219.063 272.544 215.468 C 274.711 206.123 280.662 188.048 285.035 177.524 C 297.816 146.773 303.958 128.141 306.480 112.468 C 308.257 101.422 308.511 74.333 306.936 63.692 C 305.507 54.038 302.299 37.379 300.977 32.750 C 299.843 28.780 300.155 28.888 292.000 29.645 "/></g>
<g fill="#000000FF" stroke="#000000FF">
<path d="M 99.000 283.885 C 82.367 286.105 62.834 295.490 47.080 308.830 L 43.660 311.726 46.960 317.113 C 48.775 320.076 53.644 327.225 57.781 333.000 C 82.501 367.512 99.066 380.227 145.000 399.947 C 179.099 414.586 200.820 426.781 215.137 439.322 C 234.113 455.944 249.380 482.961 256.207 512.000 C 256.918 515.025 258.036 517.500 258.692 517.500 C 261.810 517.500 274.730 496.808 278.382 485.964 C 282.243 474.501 283.435 466.493 283.367 452.500 C 283.309 440.798 282.853 436.694 280.585 427.500 C 271.466 390.529 245.747 353.514 206.931 321.494 C 187.687 305.620 163.673 293.026 140.283 286.543 C 130.276 283.769 109.763 282.449 99.000 283.885 "/></g>
<g fill="#000000FF" stroke="#000000FF">
<path d="M 305.295 30.750 C 305.522 31.163 308.258 35.809 311.373 41.075 C 329.214 71.232 334.783 104.112 327.874 138.500 C 325.202 151.801 322.669 159.232 307.206 199.133 C 294.807 231.126 292.000 243.755 292.000 267.564 C 292.000 287.089 295.250 313.003 299.047 323.750 C 300.157 326.890 300.384 327.000 305.766 327.000 C 340.311 327.000 376.005 301.690 392.496 265.500 C 397.615 254.266 397.631 254.227 399.868 247.000 C 405.315 229.407 407.648 216.583 409.102 196.247 C 411.256 166.104 408.209 136.388 400.359 111.000 C 397.398 101.427 389.821 85.019 384.887 77.500 C 371.511 57.113 352.568 41.558 333.207 35.061 C 322.291 31.398 304.105 28.589 305.295 30.750 "/></g>
</svg>
